<?xml version="1.0" standalone="no"?>
<!DOCTYPE svg PUBLIC "-//W3C//DTD SVG 20010904//EN"
 "http://www.w3.org/TR/2001/REC-SVG-20010904/DTD/svg10.dtd">
<svg version="1.0" xmlns="http://www.w3.org/2000/svg"
 width="988.000000pt" height="1280.000000pt" viewBox="0 0 988.000000 1280.000000"
 preserveAspectRatio="xMidYMid meet">
<metadata>
Created by potrace 1.15, written by Peter Selinger 2001-2017
</metadata>
<g transform="translate(0.000000,1280.000000) scale(0.100000,-0.100000)"
fill="#ffffff" stroke="none">
<path d="M4817 12794 c-4 -4 -7 -41 -7 -82 0 -53 -4 -78 -14 -86 -8 -6 -40
-74 -72 -151 -31 -77 -196 -428 -367 -780 -978 -2019 -1539 -3291 -2059 -4665
-38 -102 -118 -295 -178 -430 -205 -465 -380 -888 -604 -1463 -232 -595 -384
-1007 -916 -2492 -235 -654 -389 -1071 -457 -1237 l-57 -140 -43 4 -43 3 6
-60 c4 -33 8 -61 9 -63 2 -2 60 -10 129 -17 121 -12 129 -15 234 -68 345 -174
682 -457 972 -816 l65 -80 63 -1 c67 0 102 -12 102 -34 0 -10 17 -12 73 -8 55
3 75 1 85 -10 10 -13 30 -12 149 3 76 10 215 24 309 30 159 12 177 11 260 -7
71 -15 121 -18 248 -16 144 2 167 0 240 -22 73 -22 106 -25 326 -30 159 -3
284 -11 355 -22 82 -14 175 -18 370 -19 143 0 265 -2 270 -3 6 -1 80 -4 165
-6 85 -2 264 -10 398 -17 206 -11 268 -11 420 1 97 8 261 15 363 15 l186 0 44
43 c63 61 113 56 232 -20 l49 -31 68 22 68 22 37 -22 36 -22 242 18 c169 12
259 23 299 36 53 18 62 18 160 3 266 -40 924 -30 1333 22 508 63 825 126 860
169 5 7 150 61 320 120 171 59 315 110 322 113 8 5 -16 58 -73 166 -48 89 -81
162 -76 165 6 3 -10 38 -36 77 -33 50 -55 73 -73 77 -14 3 -26 12 -26 19 0 7
-1047 2630 -2328 5828 -1280 3198 -2328 5821 -2329 5828 -1 9 42 30 113 57
130 49 133 44 -54 65 -49 6 -106 13 -125 16 -20 3 -39 2 -43 -2z m183 -411 c0
-7 -11 -13 -24 -13 -13 0 -31 -3 -40 -6 -15 -6 -16 -471 -16 -5180 l0 -5175
48 6 c26 3 355 30 732 61 377 30 933 75 1235 99 303 25 660 54 795 65 135 11
273 22 306 25 l62 6 -88 182 c-376 779 -805 2039 -1380 4047 -239 837 -316
1115 -1115 4050 -103 377 -252 919 -332 1205 -80 286 -147 529 -149 540 l-5
20 10 -20 c24 -48 4520 -11290 4517 -11293 -2 -2 -21 1 -42 7 -22 5 -208 17
-414 26 -206 9 -381 18 -387 20 -15 5 -174 320 -166 328 8 8 1 9 -389 72 -249
39 -374 55 -445 55 -54 0 -182 3 -285 7 l-187 6 65 130 c36 71 64 130 62 131
-2 1 -22 17 -44 34 -42 32 -42 32 -162 32 -66 0 -133 -3 -149 -6 -19 -4 -91
-56 -184 -134 l-153 -127 -109 -6 c-60 -4 -115 -11 -121 -17 -7 -5 -193 -14
-445 -20 l-432 -11 -237 -159 -237 -159 -117 -4 -118 -3 0 35 c0 32 1 33 14
16 12 -17 47 2 550 311 397 243 535 333 532 345 -3 14 17 18 148 28 83 7 261
21 396 31 135 11 358 28 495 39 138 11 464 37 725 57 l475 36 43 41 c37 36 42
46 42 86 l0 44 -82 -6 c-46 -4 -245 -20 -443 -36 -198 -17 -607 -51 -910 -76
-807 -66 -1247 -103 -1635 -135 -190 -15 -346 -27 -348 -26 -1 2 1 806 6 1787
5 981 13 2684 17 3784 4 1100 11 2010 16 2021 4 12 5 24 2 27 -7 8 -4 2053 4
2570 l6 429 44 -108 c23 -60 43 -114 43 -121z m-196 -215 l-7 -433 -113 -400
c-107 -381 -204 -724 -473 -1677 -176 -623 -365 -1291 -491 -1738 -61 -217
-187 -663 -280 -990 -92 -327 -257 -911 -366 -1297 -109 -387 -199 -701 -201
-699 -4 3 276 1026 414 1520 l37 129 -12 261 c-16 339 -15 526 3 826 43 714
144 1301 346 2003 116 406 182 581 541 1442 193 462 351 845 352 850 1 6 8 20
14 33 7 12 10 22 6 22 -3 0 -2 6 4 13 6 6 10 16 10 20 -1 11 214 547 219 547
2 0 1 -195 -3 -432z m-28 -1493 c-32 -1659 -47 -2434 -76 -4010 -30 -1597 -42
-2247 -60 -3190 -5 -275 -17 -898 -26 -1385 -9 -487 -18 -887 -21 -890 -3 -3
-161 -3 -351 0 -191 3 -788 5 -1327 5 -539 0 -933 3 -875 7 58 4 580 39 1160
78 580 39 1075 73 1099 76 l44 6 -7 231 c-48 1687 -57 2215 -63 3597 -5 1329
2 2016 27 2710 45 1196 125 2096 246 2765 45 249 237 949 242 883 2 -24 -4
-421 -12 -883z m-889 -2277 c-3 -8 -6 -5 -6 6 -1 11 2 17 5 13 3 -3 4 -12 1
-19z m-20 -80 c-3 -8 -6 -5 -6 6 -1 11 2 17 5 13 3 -3 4 -12 1 -19z m-20 -70
c-3 -8 -6 -5 -6 6 -1 11 2 17 5 13 3 -3 4 -12 1 -19z m-20 -70 c-3 -8 -6 -5
-6 6 -1 11 2 17 5 13 3 -3 4 -12 1 -19z m-20 -70 c-3 -8 -6 -5 -6 6 -1 11 2
17 5 13 3 -3 4 -12 1 -19z m-20 -70 c-3 -8 -6 -5 -6 6 -1 11 2 17 5 13 3 -3 4
-12 1 -19z m-71 -259 c-54 -192 -87 -311 -226 -809 -39 -140 -93 -334 -120
-430 -27 -96 -81 -290 -120 -430 -75 -269 -168 -601 -227 -810 -19 -69 -56
-204 -83 -300 -27 -96 -76 -274 -110 -395 -34 -121 -110 -395 -170 -610 -60
-214 -136 -489 -170 -610 -34 -121 -83 -299 -110 -395 -27 -96 -76 -274 -110
-395 -34 -121 -83 -299 -110 -395 -27 -96 -83 -299 -125 -450 -43 -151 -94
-336 -114 -410 -29 -104 -42 -136 -55 -138 -13 -3 -17 1 -13 15 9 28 960 3399
1167 4133 100 355 230 816 289 1025 59 209 186 658 282 997 96 340 175 614
177 609 2 -5 -22 -96 -52 -202z m-849 -2881 c-3 -8 -6 -5 -6 6 -1 11 2 17 5
13 3 -3 4 -12 1 -19z m-20 -70 c-3 -8 -6 -5 -6 6 -1 11 2 17 5 13 3 -3 4 -12
1 -19z m-822 -2909 c-97 -343 -181 -639 -187 -658 l-10 -33 -94 180 -95 181
-42 5 c-23 3 -166 8 -317 11 -151 3 -331 8 -400 11 l-125 5 -123 -186 c-69
-104 -121 -193 -118 -201 3 -8 -1 -14 -9 -14 -8 0 -15 -7 -15 -15 0 -18 15
-19 -175 6 -105 14 -164 26 -171 35 -6 8 -17 14 -24 14 -7 0 -10 6 -7 13 90
215 100 234 150 286 220 227 667 496 1187 714 298 125 743 290 748 277 2 -4
-76 -288 -173 -631z m3260 -45 c493 40 596 48 600 44 3 -3 -363 -232 -907
-565 l-118 -73 0 353 0 352 63 -67 62 -68 300 24z m-4187 -304 l72 0 0 -74 0
-75 -242 6 c-134 3 -244 6 -245 7 -1 1 19 35 45 75 l47 73 125 -6 c69 -3 158
-6 198 -6z m388 -10 l122 0 41 -72 40 -73 -42 -3 c-23 -2 -133 -1 -244 3
l-203 7 0 67 c0 37 3 71 8 75 4 5 40 5 81 2 41 -3 129 -6 197 -6z m-398 -176
l82 -6 0 -94 0 -94 -27 0 c-52 0 -596 30 -599 33 -4 3 52 90 91 142 l22 30
174 -3 c96 -1 211 -5 257 -8z m554 -14 l66 0 45 -82 46 -83 -37 -7 c-20 -4
-107 -7 -193 -7 -148 -1 -157 -2 -162 -21 -5 -18 -14 -20 -94 -20 -56 0 -93 4
-101 12 -8 8 -12 49 -12 117 l0 104 188 -6 c103 -4 217 -7 254 -7z"/>
</g>
</svg>
